<?xml version="1.0" encoding="utf-8"?>
<!-- Generator: Adobe Illustrator 18.0.0, SVG Export Plug-In . SVG Version: 6.00 Build 0)  -->
<!DOCTYPE svg PUBLIC "-//W3C//DTD SVG 1.1//EN" "http://www.w3.org/Graphics/SVG/1.1/DTD/svg11.dtd">
<svg version="1.1" id="Layer_1" xmlns="http://www.w3.org/2000/svg" xmlns:xlink="http://www.w3.org/1999/xlink" x="0px" y="0px"
	 viewBox="0 0 436 500" enable-background="new 0 0 436 500" xml:space="preserve">
<path fill="#179F9F" d="M239.7,38.4c211.2,0,163.2,88.2,122.9,128.5c-45.4,45.4-31.4,105.5-21.8,177.1
	c9.6,71.6-33.3,115.1-143.3,117c-1.3,0-2.6,0-3.2,0C86.2,461.6,53.5,352.9,41.4,258.3C29.9,162.4,46.5,51.8,150.8,42.8
	C184.7,39.6,214.2,38.4,239.7,38.4 M239.7,0c-27.5,0-58.9,1.3-92.8,4.5C104.7,8.3,68.3,26.2,43.3,57.5
	C22.2,83.8-11.1,145.1,3.6,262.8c8.3,64.6,23,114.5,45.4,152.2c33.3,55.6,83.2,85,144.6,85c1.3,0,3.2,0,4.5,0
	c73.6-1.3,123.5-19.8,154.2-55c23.7-27.5,32.6-63.3,26.9-105.5c-1.3-7.7-1.9-14.7-3.2-21.7c-9-62.7-12.2-97.2,13.4-123.4
	c41-40.9,56.3-86.3,40.3-123.4C404.2,7.7,308.8,0,239.7,0L239.7,0z"/>
</svg>
